PathFileType	4	(X/Y/Z)	E:\Qualisys_Data\Carbon_Farble_Plate\Data\Amateur_Runner\S14\T3\S14T3V12_c3d.trc
DataRate	CameraRate	NumFrames	NumMarkers	Units	OrigDataRate	OrigDataStartFrame	OrigNumFrames
200.000000	200.000000	4	39	mm	200.000000	81	327
Frame#	Time	LSHO			RSHO			LICST			RICST			LASIS			LHEEL			RASIS			LTROC			RTROC			SACR			LTH1			LSK4			LTH2			LTH3			RHM5			LSK2			LTH4			RTH1			LTOE			RTH2			RTH3			RTH4			LLEP			RLEP			LSK1			LSK3			RSK1			LHM5			RSK2			LFT1			RSK3			RSK4			LLME			RLME			RTOE			RHEEL			RFT1			RFT2			LFT2			
		X1	Y1	Z1	X2	Y2	Z2	X3	Y3	Z3	X4	Y4	Z4	X5	Y5	Z5	X6	Y6	Z6	X7	Y7	Z7	X8	Y8	Z8	X9	Y9	Z9	X10	Y10	Z10	X11	Y11	Z11	X12	Y12	Z12	X13	Y13	Z13	X14	Y14	Z14	X15	Y15	Z15	X16	Y16	Z16	X17	Y17	Z17	X18	Y18	Z18	X19	Y19	Z19	X20	Y20	Z20	X21	Y21	Z21	X22	Y22	Z22	X23	Y23	Z23	X24	Y24	Z24	X25	Y25	Z25	X26	Y26	Z26	X27	Y27	Z27	X28	Y28	Z28	X29	Y29	Z29	X30	Y30	Z30	X31	Y31	Z31	X32	Y32	Z32	X33	Y33	Z33	X34	Y34	Z34	X35	Y35	Z35	X36	Y36	Z36	X37	Y37	Z37	X38	Y38	Z38	X39	Y39	Z39	

82	0.405	-1480.8095703125	1463.194946289062	-513.75244140625	-1376.760864257812	1457.659545898438	-240.8584442138672	-1486.632202148438	1010.799865722656	-475.2925415039062	-1438.121215820312	1016.226318359375	-207.2125396728516	-1441.15771484375	961.2608642578124	-453.3695068359375	-1327.560668945312	93.31175994873048	-353.7186584472656	-1423.420776367188	968.8387451171876	-225.2733764648438	-1562.376586914062	889.6036376953125	-496.5074462890625	-1582.979736328125	917.9463500976562	-156.1316833496094	-1604.347778320312	1015.364562988281	-336.4337158203125	-1419.727416992188	678.2001342773438	-504.2278137207031	-1378.155029296875	310.4288940429688	-433.5341796875	-1482.858764648438	653.1790771484375	-463.0874328613281	-1366.474975585938	599.94677734375	-471.5319519042969	-2034.454467773438	176.7257843017578	-164.7834930419922	-1399.336303710938	406.7742614746094	-451.0681457519531	-1436.815063476562	569.5413208007812	-444.7491760253906	-1546.4150390625	672.0072631835938	-170.3907775878906	-1087.576049804688	187.1995697021484	-412.173583984375	-1616.886108398438	704.349853515625	-157.8634948730469	-1587.052734375	582.3652954101562	-191.3826751708984	-1662.814331054688	616.8128662109375	-176.7061920166016	-1377.5927734375	511.933349609375	-459.6205749511719	-1676.406860351562	544.5399780273438	-181.4139099121094	-1318.162231445312	423.1791076660156	-455.6555480957031	-1298.757080078125	324.7556762695312	-442.6383972167969	-1759.139892578125	450.4991455078125	-176.0512390136719	-1151.085327148438	138.0798797607422	-461.9766235351562	-1813.530517578125	516.5735473632812	-180.0116577148438	-1301.577392578125	71.69084930419922	-329.166259765625	-1841.9453125	389.2479553222656	-183.9486999511719	-1887.193969726562	454.42724609375	-190.7660827636719	-1290.599609375	140.3901672363281	-416.7705688476562	-2002.607299804688	322.0353393554688	-203.6519012451172	-1998.330322265625	106.0954971313477	-222.9300384521484	-2036.086303710938	359.5671081542969	-264.1205444335938	-2058.18310546875	338.5350952148438	-292.9698181152344	-2062.21875	357.974853515625	-243.8681488037109	-1316.5869140625	62.56228637695312	-380.4347229003906
83	0.41	-1467.304321289062	1459.806396484375	-515.498046875	-1361.504516601562	1454.789184570312	-242.2711181640625	-1471.435668945312	1007.684875488281	-476.0655212402344	-1423.23876953125	1013.854064941406	-207.8245697021484	-1425.613159179688	957.9951782226562	-453.7153015136719	-1314.4033203125	89.40975952148438	-352.8780212402344	-1407.473022460938	966.7954711914062	-225.7021026611328	-1547.493774414062	885.5534057617188	-496.8227233886719	-1566.619018554688	914.6764526367188	-156.2503051757812	-1588.62841796875	1011.834838867188	-336.8916931152344	-1404.344482421875	674.8313598632812	-503.6914367675781	-1364.085815429688	307.6559448242188	-433.3782958984375	-1467.524047851562	650.1810302734375	-463.1256103515625	-1350.766479492188	597.0159301757812	-471.3293762207031	-2019.818481445312	180.1284332275391	-164.6863861083984	-1384.080322265625	403.4067077636719	-450.6024780273438	-1421.614135742188	566.4013061523438	-444.4625244140625	-1528.400268554688	668.6205444335938	-170.9827728271484	-1074.763793945312	184.0648956298828	-411.6933288574219	-1599.83154296875	701.9474487304688	-157.1814422607422	-1568.773559570312	578.5108032226562	-191.3137664794922	-1644.371704101562	612.9949951171875	-176.0757446289062	-1361.864624023438	509.30419921875	-459.010009765625	-1657.310791015625	540.9070434570312	-181.3257598876953	-1302.89013671875	420.0111999511719	-455.1639099121094	-1285.391845703125	321.6382446289062	-442.50341796875	-1742.05810546875	448.5018615722656	-176.5275115966797	-1138.208984375	134.6079254150391	-461.512939453125	-1795.5009765625	515.4041137695312	-180.4161071777344	-1288.629028320312	68.19776916503906	-328.1225891113281	-1826.958740234375	388.3871459960938	-185.4675445556641	-1869.876708984375	454.8075256347656	-191.3214721679688	-1277.3935546875	136.7938232421875	-416.0702209472656	-1988.018188476562	324.56591796875	-204.7710723876953	-1984.452758789062	108.8241653442383	-221.8518524169922	-2022.7587890625	362.241455078125	-266.3005676269531	-2044.394409179688	340.9014587402344	-294.4970397949219	-2047.933715820312	360.3978881835938	-245.6276397705078	-1304.248291015625	59.68284606933594	-379.4949951171875
84	0.415	-1450.8154296875	1455.8173828125	-517.366943359375	-1345.796020507812	1451.8447265625	-243.4786071777344	-1455.779663085938	1003.982299804688	-476.5860290527344	-1407.86376953125	1010.861206054688	-208.7288513183594	-1411.699340820312	953.84765625	-454.3147888183594	-1302.228637695312	85.53948974609375	-351.7621765136719	-1392.2275390625	963.7586059570312	-225.9275817871094	-1532.219848632812	881.687744140625	-497.054443359375	-1550.208740234375	910.8215942382812	-156.0040740966797	-1573.974487304688	1008.207580566406	-337.6827392578125	-1388.362548828125	671.3587036132812	-503.27587890625	-1349.466186523438	304.2541809082031	-432.5049743652344	-1451.907104492188	647.2421264648438	-463.1783142089844	-1335.216186523438	593.8934936523438	-470.9044799804688	-2005.37939453125	183.8149719238281	-164.3658599853516	-1369.381591796875	400.6897277832031	-450.5311279296875	-1406.88232421875	563.77001953125	-444.7717590332031	-1510.396240234375	665.3394775390625	-171.5599975585938	-1062.716186523438	179.8170928955078	-410.5418701171875	-1582.781616210938	697.5029907226562	-157.2209625244141	-1549.77880859375	574.6718139648438	-191.9284057617188	-1626.24365234375	608.4131469726562	-175.9957580566406	-1346.042114257812	505.9006042480469	-458.8661193847656	-1639.185546875	536.7929077148438	-181.1555786132812	-1287.794067382812	416.4435424804688	-455.1701354980469	-1271.049438476562	317.4859008789062	-441.6914367675781	-1725.653198242188	445.2506713867188	-176.5321502685547	-1126.216430664062	130.4182281494141	-459.8091430664062	-1776.387084960938	513.2139892578125	-180.8388366699219	-1276.787353515625	64.3296127319336	-327.311279296875	-1811.408081054688	387.4754638671875	-186.1865539550781	-1852.539672851562	454.4225769042969	-191.8414459228516	-1265.500244140625	132.9755706787109	-415.1711730957031	-1972.9365234375	327.1701354980469	-205.7637939453125	-1970.94287109375	111.2958297729492	-221.16015625	-2007.285888671875	364.3047790527344	-267.8028259277344	-2028.430053710938	343.2694396972656	-295.1423034667969	-2033.520263671875	363.1590881347656	-247.2776336669922	-1291.958251953125	55.19093322753906	-378.5107421875
85	0.42	-1435.133666992188	1451.853271484375	-518.9447021484375	-1330.758666992188	1448.548217773438	-245.0676422119141	-1441.2412109375	1000.718933105469	-477.5476379394531	-1392.80712890625	1008.309631347656	-208.3250579833984	-1396.022583007812	950.9772338867188	-454.9797973632812	-1291.701904296875	81.77690124511719	-351.2438049316406	-1376.655151367188	961.3514404296876	-226.5677642822266	-1516.108642578125	877.4557495117188	-496.6732177734375	-1534.052124023438	907.2827758789062	-156.6064910888672	-1558.169067382812	1003.8251953125	-337.840087890625	-1372.942260742188	668.3919677734375	-502.3238220214844	-1336.094970703125	301.2052917480469	-431.9168395996094	-1436.634521484375	643.8785400390625	-462.9242553710938	-1319.536743164062	590.250244140625	-470.37255859375	-1991.324340820312	186.6450805664062	-164.8154296875	-1354.786010742188	397.5083923339844	-450.0689086914062	-1391.069213867188	560.1777954101562	-444.4537353515625	-1492.662719726562	661.6666870117188	-172.0531463623047	-1051.105346679688	174.7651519775391	-408.84912109375	-1561.72900390625	692.19384765625	-158.5814819335938	-1530.942504882812	570.6871337890625	-191.6793975830078	-1607.650268554688	603.6084594726562	-176.1137847900391	-1330.995239257812	502.7434997558594	-458.7839050292969	-1619.322875976562	531.7837524414062	-181.2117767333984	-1273.84716796875	412.2842407226562	-454.8599548339844	-1257.618286132812	312.9794311523438	-440.8453674316406	-1707.7099609375	441.7000732421875	-177.5758361816406	-1114.706176757812	125.752067565918	-459.154541015625	-1757.73486328125	511.6409912109375	-181.6930389404297	-1266.034301757812	60.77450942993164	-326.080078125	-1794.368286132812	386.4109191894531	-186.6173400878906	-1834.680541992188	453.7380676269531	-192.8173828125	-1254.174682617188	129.2299346923828	-414.4185180664062	-1962.2236328125	329.3409118652344	-207.4027862548828	-1956.578247070312	113.6309356689453	-220.8811798095703	-1991.249755859375	366.5818786621094	-268.6935119628906	-2013.479370117188	344.8164978027344	-296.8758239746094	-2019.28662109375	364.9863586425781	-248.9915924072266	-1282.072265625	51.09095764160156	-377.0248718261719
